<?xml version="1.0" encoding="UTF-8"?>
<svg version="1.1" viewBox="0 0 984 820" width="1280" height="1280" xmlns="http://www.w3.org/2000/svg">
<path transform="translate(0)" d="m0 0h984v820h-984z" fill="#FEFFFD"/>
<path transform="translate(444,245)" d="m0 0 13 5 11 4 8 5 13 11 7 8 12 21 6 15 2 7 2 2-1 4v12l3 8 3 16 8 23 7 15 3 6 5 4 4 9h5l9-7h10l20 4 2 1h7l11-6 8-5h8l3 3 3 1 18 2 15 4 4 6 6 2 33 2h16l6 3 7 7 20 11 4 3h3l1-2 4 2 8 7 8 6 16 8 5 1 1 5 8 5 10 5 3 2 8 1 2 3 2 10 4 4 7-1 4-1 3 4 4 13 8 14 5 12 7 13 10 13 2 3 4 2 1 7-5 3-7 1-11 8-2 7 1 9 7 18 8 15 1 6h-31l-35-2-14-1h-6l-13-4-1-7 2-1v-5l-3-2h-9v-2l-8-1-2-8-7-1v2l-6 5-2 3h-4l-1 4-4 3-8 1-4-1-2-2-1-7h-25l-7 2-4 1-2 3-5 1-6-5h-14l-9-1-2-1-17-1-4-1-8 1-14-3-16 3-2 1-10 1-6 2-1-1v-11l-2-2h-7v2l-6 1-4-1-4 2-5-3-7 2-5 1-3-2v-2l-5 1v-2l-5-1-1 2-4 2-3 3-5 1-3 3h-2l-1-7-7-1v2h-2l-2 4-9 2-3 4-5-1-1-3-10 4-2 3-7 2-4 3-6 2h-6l-1-2-14-1-3 3h-2v5l-6 4-3 3-9 2v2l-6 4-5-1-6-2-5 3-5 4-7 4-1 5-3 8-6 5-13-1-7 3-3 4-3 12-5 8-5 7-4 1-2-3-7 1-8 1v2l-4 2h-8l-9-4-5-6v-7l1-2h-7l-3-1-1-5h-2v3l-5-2-2-2v-12l-5 2-4-1-7-3-9 1-7-7-11-7-2-5-17-11-11-21-6-9-3-7 1-8v-12l-8-10-15-14-6-10-7 1v-3l3-1-1-4-6-7-14-2v-3l7-3 18-4 12-6 13-10 16-7 11-7 11-8 10-7 7-4 14-3 23-3 3-1 32-1 12-2 12-13h7l5 2h6l3-3h2v-2h2l2-5 6-5 15-3h19l8-3 7-11 1-3v-10l6 2 2 5-1 3h-4l-1 3 13-5 2-2 7-1 1-9-4-4-14-6-8-5-2-6-8-2-10-5v-9l-2-8v-6l5-12v-4l-5-1-3-8v-3l-4-2-3-5-3-8v-13l4-15 6-9 7-7 3-12 5-4 13-1 10-7 11-7z" fill="#01A4EA"/>
<path transform="translate(475,396)" d="m0 0h32l5 10 4 7-1 6-6 7-9 5-1 1h-6l-4-5-7-2-5-9-3-3-8-4-6 1-9 1-7 1-1 1-7-1-7-5v-3l18-3 16-4z" fill="#FEFFFD"/>
</svg>
